<?xml version="1.0" encoding="UTF-8"?>
<svg id="Netflix_Symbol_RGB" xmlns="http://www.w3.org/2000/svg" xmlns:svg="http://www.w3.org/2000/svg" xmlns:rdf="http://www.w3.org/1999/02/22-rdf-syntax-ns#" xmlns:dc="http://purl.org/dc/elements/1.1/" xmlns:cc="http://creativecommons.org/ns#" version="1.1" viewBox="0 0 274 200">
  <!-- Generator: Adobe Illustrator 29.5.1, SVG Export Plug-In . SVG Version: 2.1.0 Build 141)  -->
  <defs>
    <style>
      .st0 {
        fill-rule: evenodd;
      }

      .st0, .st1 {
        fill: #8b5cf6;
      }
    </style>
  </defs>
  <path class="st0" d="M53.88,2.8c3.72,3.73,3.72,9.77-.01,13.49-21.36,21.31-34.55,50.76-34.55,83.3s13.51,62.68,35.31,84.05c3.76,3.69,3.82,9.73.13,13.49-3.69,3.76-9.73,3.82-13.49.13C15.95,172.46.23,137.86.23,99.6S15.59,27.54,40.38,2.79c3.73-3.72,9.77-3.72,13.49.01ZM221.18,3.72c3.76-3.69,9.8-3.63,13.49.13,24.17,24.66,39.1,58.47,39.1,95.74s-15.28,71.88-39.96,96.62c-3.72,3.73-9.76,3.74-13.49.01-3.73-3.72-3.74-9.76-.01-13.5,21.26-21.3,34.39-50.68,34.39-83.13s-12.82-61.14-33.64-82.38c-3.69-3.76-3.63-9.8.13-13.49ZM90.04,42.19c3.6,3.85,3.4,9.89-.45,13.49-12.07,11.3-19.39,26.75-19.39,43.7s7.49,32.76,19.82,44.09c3.88,3.57,4.13,9.6.57,13.48-3.57,3.88-9.6,4.13-13.48.57-15.94-14.65-25.99-35.24-25.99-58.14s9.82-43.02,25.44-57.63c3.85-3.6,9.89-3.4,13.49.45ZM184.62,42.67c3.64-3.81,9.68-3.94,13.49-.3,15.23,14.57,24.77,34.69,24.77,57s-9.76,42.91-25.31,57.52c-3.84,3.61-9.88,3.42-13.49-.42-3.61-3.84-3.42-9.88.42-13.49,12.02-11.29,19.3-26.71,19.3-43.61s-7.11-31.96-18.88-43.21c-3.81-3.64-3.94-9.68-.3-13.49Z"/>
  <path class="st1" d="M158.07,79.89c11.4,8.37,17.1,12.55,17.1,19.71s-5.7,11.34-17.1,19.71c-3.15,2.31-6.27,4.48-9.13,6.3-2.52,1.59-5.36,3.23-8.31,4.85-11.37,6.22-17.06,9.33-22.15,5.89-5.1-3.45-5.56-10.66-6.49-25.08-.26-4.08-.43-8.08-.43-11.66s.17-7.58.43-11.66c.93-14.42,1.39-21.63,6.49-25.08,5.1-3.44,10.78-.33,22.15,5.89,2.95,1.61,5.8,3.26,8.31,4.85,2.87,1.81,5.99,3.99,9.13,6.3Z"/>
</svg>