<?xml version="1.0" encoding="UTF-8"?>
<svg id="Layer_1" xmlns="http://www.w3.org/2000/svg" version="1.1" viewBox="0 0 504 90">
  <!-- Generator: Adobe Illustrator 29.5.1, SVG Export Plug-In . SVG Version: 2.1.0 Build 141)  -->
  <defs>
    <style>
      .st0 {
        fill-rule: evenodd;
      }

      .st0, .st1 {
        fill: #8b5cf6;
      }
    </style>
  </defs>
  <g>
    <path class="st1" d="M113.55,79.94c-2.53-3.37-3.8-8.2-3.8-14.5v-4.45h9.64v5.34c0,5.04,1.76,7.56,5.28,7.56,1.73,0,3.04-.61,3.94-1.83.89-1.22,1.34-3.2,1.34-5.95,0-3.26-.62-6.13-1.85-8.61-1.24-2.48-3.52-5.46-6.86-8.95-4.2-4.45-7.13-8.47-8.8-12.05-1.67-3.59-2.5-7.65-2.5-12.16,0-6.15,1.3-10.9,3.89-14.27,2.59-3.37,6.36-5.06,11.3-5.06s8.57,1.69,11.07,5.06c2.5,3.37,3.75,8.2,3.75,14.5v3.23h-9.64v-4.01c0-2.66-.43-4.61-1.3-5.83-.87-1.22-2.13-1.83-3.8-1.83-3.4,0-5.1,2.48-5.1,7.45,0,2.82.63,5.44,1.9,7.89,1.27,2.45,3.57,5.41,6.9,8.89,4.26,4.45,7.19,8.48,8.8,12.11s2.41,7.89,2.41,12.77c0,6.37-1.31,11.26-3.94,14.67-2.63,3.41-6.44,5.11-11.44,5.11s-8.68-1.68-11.21-5.05h.02Z"/>
    <path class="st1" d="M159.5,17.22h-10.65V6.1h31.5v11.1h-10.65v66.66h-10.19V17.22h-.01Z"/>
    <path class="st1" d="M190.81,6.1h15.1c5.25,0,9.08,1.46,11.49,4.39s3.61,7.42,3.61,13.5v4.77c0,8.07-2.22,13.18-6.67,15.34v.22c2.47.89,4.22,2.71,5.23,5.44,1.02,2.75,1.53,6.4,1.53,11v13.67c0,2.22.06,4.02.19,5.38.12,1.37.43,2.72.93,4.05h-10.38c-.37-1.26-.62-2.45-.74-3.55-.12-1.12-.19-3.11-.19-6v-14.22c0-3.56-.48-6.03-1.44-7.45-.96-1.4-2.61-2.11-4.96-2.11h-3.52v33.33h-10.19V6.1h.01ZM204.71,39.44c2.04,0,3.57-.62,4.59-1.89,1.02-1.26,1.53-3.37,1.53-6.33v-6c0-2.82-.42-4.84-1.25-6.12-.83-1.26-2.15-1.89-3.94-1.89h-4.63v22.22h3.71,0Z"/>
    <path class="st1" d="M233.7,6.1h27.79v11.1h-17.6v20.55h13.99v11.1h-13.99v23.89h17.6v11.1h-27.79V6.1h0Z"/>
    <path class="st1" d="M280.77,6.1h13.8l10.56,77.77h-10.19l-1.85-15.45v.22h-11.58l-1.85,15.22h-9.45l10.56-77.77h0ZM291.89,58.1l-4.54-38.45h-.19l-4.45,38.45h9.18Z"/>
    <path class="st1" d="M315.6,6.1h14.55l6.49,55.67h.19l6.49-55.67h14.55v77.77h-9.64V24.99h-.19l-7.41,58.88h-8.52l-7.41-58.88h-.19v58.88h-8.89V6.1h-.02Z"/>
    <path class="st1" d="M371,6.1h26.96v11.1h-16.77v21.67h13.16v11.1h-13.16v33.89h-10.19V6.1Z"/>
    <path class="st1" d="M408.43,6.1h10.19v66.66h16.77v11.1h-26.96V6.1Z"/>
    <path class="st1" d="M445.86,6.1h10.19v77.77h-10.19V6.1Z"/>
    <path class="st1" d="M478.19,44.11l-11.21-38h10.75l6.86,25.11h.19l7.04-25.11h9.64l-11.21,38,11.77,39.78h-10.75l-7.41-27.11h-.19l-7.6,27.11h-9.64l11.77-39.78h0Z"/>
  </g>
  <g>
    <path class="st0" d="M19.89,12.58c1.24,1.24,1.24,3.26,0,4.5-7.12,7.11-11.52,16.93-11.52,27.78s4.5,20.9,11.78,28.03c1.26,1.23,1.28,3.25.04,4.5-1.23,1.26-3.25,1.28-4.5.04C7.24,69.17,2,57.63,2,44.87S7.12,20.83,15.39,12.58c1.24-1.24,3.26-1.24,4.5,0ZM75.69,12.89c1.26-1.23,3.27-1.21,4.5.04,8.06,8.22,13.04,19.5,13.04,31.93s-5.1,23.97-13.33,32.22c-1.24,1.24-3.26,1.25-4.5,0-1.24-1.24-1.25-3.26,0-4.5,7.09-7.1,11.47-16.9,11.47-27.73s-4.28-20.39-11.22-27.48c-1.23-1.26-1.21-3.27.04-4.5v.02ZM31.96,25.72c1.2,1.28,1.13,3.3-.15,4.5-4.03,3.77-6.47,8.92-6.47,14.57s2.5,10.93,6.61,14.71c1.29,1.19,1.38,3.2.19,4.5-1.19,1.29-3.2,1.38-4.5.19-5.32-4.89-8.67-11.75-8.67-19.39s3.27-14.35,8.48-19.22c1.28-1.2,3.3-1.13,4.5.15h.01ZM63.5,25.88c1.21-1.27,3.23-1.31,4.5-.1,5.08,4.86,8.26,11.57,8.26,19.01s-3.26,14.31-8.44,19.18c-1.28,1.2-3.3,1.14-4.5-.14-1.2-1.28-1.14-3.3.14-4.5,4.01-3.77,6.44-8.91,6.44-14.55s-2.37-10.66-6.3-14.41c-1.27-1.21-1.31-3.23-.1-4.5h0Z"/>
    <path class="st1" d="M54.64,38.29c3.8,2.79,5.7,4.19,5.7,6.57s-1.9,3.78-5.7,6.57c-1.05.77-2.09,1.5-3.05,2.1-.84.53-1.79,1.08-2.77,1.62-3.79,2.08-5.69,3.11-7.39,1.96s-1.86-3.55-2.16-8.36c-.09-1.36-.14-2.69-.14-3.89s.06-2.53.14-3.89c.31-4.81.46-7.22,2.16-8.36,1.7-1.15,3.6-.11,7.39,1.96.98.54,1.93,1.09,2.77,1.62.96.6,2,1.33,3.05,2.1Z"/>
  </g>
</svg>